<svg width="24" height="24" viewBox="0 0 24 24" fill="none" xmlns="http://www.w3.org/2000/svg">
  <path d="M12 2C6.477 2 2 6.477 2 12s4.477 10 10 10 10-4.477 10-10S17.523 2 12 2zm0 18c-4.411 0-8-3.589-8-8s3.589-8 8-8 8 3.589 8 8-3.589 8-8 8z" fill="currentColor" opacity="0.12"/>
  <circle cx="12" cy="12" r="9" stroke="currentColor" stroke-width="1.5" fill="none"/>
  <path d="M16.5 8.5c-1.2-1-2.8-1.3-4.5-0.8-1.7 0.5-3 2-3 4s1.3 3.5 3 4c1.7 0.5 3.3 0.2 4.5-0.7" stroke="currentColor" stroke-width="2" stroke-linecap="round"/>
</svg>
